<svg width="34" height="35" viewBox="0 0 34 35" fill="none" xmlns="http://www.w3.org/2000/svg">
<path d="M15.4878 34.3274L15.1221 33.9581V31.1461C8.94663 30.3081 3.99503 25.3088 3.16508 19.0739H0.365743L0 18.7047V15.6511L0.365743 15.2819H3.15101C3.99504 9.03278 8.94663 4.03351 15.1221 3.18136V0.369265L15.4878 0H18.5122L18.8779 0.369265V3.18136C25.0534 4.0193 30.005 9.01858 30.8349 15.2535H33.6202L33.9859 15.6227V18.6763L33.6202 19.0455H30.8349C30.005 25.2804 25.0534 30.2797 18.8779 31.1176V33.9297L18.5122 34.299H15.4878V34.3274ZM16.993 6.8456C11.3662 6.8456 6.78031 11.4756 6.78031 17.1566C6.78031 22.8376 11.3662 27.4676 16.993 27.4676C22.6198 27.4676 27.2056 22.8376 27.2056 17.1566C27.2056 11.4756 22.6198 6.8456 16.993 6.8456Z" fill="#832983"/>
</svg>
