<svg width="39" height="23" viewBox="0 0 39 23" fill="none" xmlns="http://www.w3.org/2000/svg">
<path d="M35.4693 0C32.8991 0 31.4651 2.7104 32.0468 4.71811L25.7565 11.4152C25.2289 11.2432 24.4443 11.2432 23.9168 11.4152L19.3985 6.62543C20.0073 4.61772 18.5598 1.89298 15.9761 1.89298C13.3923 1.89298 11.9448 4.60338 12.5536 6.62543L4.45057 15.1725C2.55671 14.5559 0 16.076 0 18.8007C0 20.8658 1.59625 22.558 3.54422 22.558C6.11446 22.558 7.54839 19.8476 6.9667 17.8399L15.0291 9.26413C15.5567 9.43622 16.3413 9.43622 16.8689 9.26413L21.3871 14.0539C20.7919 16.0616 22.2258 18.7864 24.8096 18.7864C27.3933 18.7864 28.8408 16.076 28.2321 14.0539L34.5494 7.38549C36.4433 8.00214 39 6.48202 39 3.75728C39 1.69221 37.4037 0 35.4558 0" fill="#EA7E23"/>
</svg>
