<svg width="26" height="29" viewBox="0 0 26 29" fill="none" xmlns="http://www.w3.org/2000/svg">
<path d="M13.8084 2.71099C13.8084 1.25648 15.2688 0.0673828 17.0552 0.0673828C18.8415 0.0673828 20.3019 1.25648 20.3019 2.71099C20.3019 4.16551 18.8415 5.35461 17.0552 5.35461C15.2688 5.35461 13.8084 4.16551 13.8084 2.71099ZM3.76831 23.2547L1.91675 21.3118L0 22.554L3.87262 26.5778C4.70712 27.4378 5.76329 28.096 6.92377 28.4464C7.38014 28.5738 7.78435 28.4995 8.09729 28.2978C8.57974 27.9899 8.77533 27.3741 8.29288 26.8857C8.16249 26.7477 7.9669 26.6628 7.78435 26.5991C7.08024 26.3655 6.45436 26.0045 5.9328 25.5055L5.80241 25.3675L11.3701 22.1612L12.8175 17.9038L16.2467 20.5474V26.5247H13V28.5101H19.2849C20.6148 28.5101 21.9057 28.2341 22.9619 27.7032C23.3791 27.4909 23.5617 27.183 23.5617 26.8539C23.5617 26.3549 23.0792 25.8559 22.3099 25.8559C22.1013 25.8559 21.8927 25.909 21.7101 25.9939C21.0582 26.3018 20.3019 26.4823 19.4935 26.5247V18.562L16.0642 15.9184L17.0421 11.9477C19.1545 13.9331 22.4273 15.2814 26 15.2814V12.6378C22.9097 12.6378 20.3019 11.2895 18.998 9.4315L17.3681 7.33997C16.7161 6.5437 15.7382 6.01285 14.6038 6.01285C13.3781 6.01285 12.3089 6.45876 4.87663 9.02806V15.2708H8.12337V10.748L11.0311 9.82433L8.44935 20.5686L3.76831 23.2547Z" fill="#E43489"/>
</svg>
