<svg width="203" height="44" viewBox="0 0 203 44" fill="none" xmlns="http://www.w3.org/2000/svg">
<g clip-path="url(#clip0_1923_12485)">
<path d="M32.8413 26.114H23.8611C24.0034 24.0696 24.0681 22.1505 24.301 20.2566C24.3528 19.805 24.9998 19.0776 25.375 19.065C30.5768 18.9898 35.7787 19.0148 41.2651 19.0148C41.2651 21.9248 41.2651 24.6215 41.2651 27.3181C41.2651 30.943 41.3169 34.5804 41.2263 38.2053C41.2134 38.8951 40.7864 39.9236 40.23 40.187C31.8449 44.2634 23.0847 45.2292 14.1433 42.3193C4.77483 39.2589 -0.29758 31.3318 0.0129754 21.2976C0.43999 7.68873 11.0636 -0.689834 25.1809 0.0501887C32.259 0.413929 37.0209 2.27026 40.4629 5.53137L34.9893 10.8119C31.4956 8.36604 27.5748 7.28736 23.24 7.35007C15.0879 7.4755 9.26495 12.8062 8.91558 20.6579C8.28152 34.4801 19.9662 39.2212 31.6767 35.5211C32.1555 35.3706 32.7637 34.7184 32.7896 34.2919C32.8931 31.6579 32.8413 29.024 32.8413 26.1266V26.114Z" fill="#182954"/>
<path d="M173.42 33.8653C175.231 35.1949 176.836 36.3614 178.44 37.5404C173.95 43.5484 164.413 45.4047 157.271 41.7422C150.607 38.3306 147.669 30.2029 150.464 22.903C153.143 15.9167 160.648 12.3545 169.149 14.0478C176.525 15.5153 180.355 21.6111 179.708 31.1185H157.646C157.905 33.7274 159.16 35.4081 161.269 36.3864C165.863 38.5062 169.835 37.2393 173.433 33.8528L173.42 33.8653ZM157.801 25.1858H171.621C171.737 21.9748 168.502 19.3157 164.802 19.4788C160.959 19.6544 158.073 21.8996 157.801 25.1858Z" fill="#182954"/>
<path d="M72.8512 42.8461H65.9931L65.5402 40.325C61.49 43.7116 56.9482 44.1255 52.1992 43.0217C48.0585 42.0559 45.6646 39.3592 45.4317 35.8222C45.1341 31.2942 46.8422 28.1962 51.0735 26.7287C53.752 25.788 56.6764 25.4117 59.5102 25.0229C61.2701 24.7846 63.1075 24.9727 64.8673 24.9727C65.2426 21.7241 63.4957 19.8302 60.1572 19.5417C56.6505 19.2281 53.5838 20.219 50.8276 22.4516L46.4928 18.0867C51.384 13.3205 62.6287 12.0411 68.4905 15.6283C71.2984 17.3467 72.6959 19.9305 72.7736 22.9909C72.9418 28.9864 72.8383 34.9944 72.8512 41.0023C72.8512 41.5542 72.8512 42.0936 72.8512 42.8336V42.8461ZM64.8544 29.9522C61.6324 30.5166 58.4362 30.8678 55.3954 31.7458C54.4767 32.0092 53.4544 33.7401 53.4803 34.7686C53.5062 35.6842 54.7355 37.0765 55.7318 37.39C60.4031 38.8199 66.1225 35.1825 64.8415 29.9647L64.8544 29.9522Z" fill="#182954"/>
<path d="M126.319 42.8084H118.412V14.4743H125.529L125.982 17.6853C129.217 13.9852 133.267 13.0068 137.809 13.9225C142.222 14.8004 145.146 17.6351 145.379 22.2132C145.728 29.0239 145.47 35.8472 145.47 42.7959H137.68C137.68 38.5439 137.68 34.3797 137.68 30.2155C137.68 28.8233 137.719 27.4185 137.641 26.0262C137.447 22.3888 135.648 20.4698 132.517 20.4823C129.114 20.5074 126.526 22.7149 126.383 26.0388C126.215 29.8643 126.306 33.7149 126.293 37.553C126.293 39.2212 126.293 40.8894 126.293 42.8084H126.319Z" fill="#182954"/>
<path d="M98.6791 6.27124H106.469C106.469 8.45368 106.547 10.5358 106.443 12.6053C106.378 14.0101 106.961 14.4366 108.345 14.3864C110.351 14.3111 112.369 14.3613 114.569 14.3613C114.401 16.5563 114.246 18.5381 114.065 20.7832H106.689C106.689 25.4867 106.598 29.9143 106.728 34.3419C106.779 36.3111 108.371 37.0512 110.221 37.0261C111.632 37.001 113.042 36.7125 114.556 36.5369C114.44 38.2427 114.401 39.9862 114.129 41.692C114.052 42.1812 113.314 42.8961 112.822 42.9212C110.312 43.0842 107.75 43.3727 105.291 43.0341C100.982 42.4446 98.925 40.5757 98.7826 35.985C98.4462 26.1139 98.6791 16.2302 98.6791 6.27124Z" fill="#182954"/>
<path d="M191.535 42.8085H183.629V14.4869H191.031L191.277 17.1711C192.868 16.3432 194.395 15.2395 196.116 14.7503C197.785 14.2737 199.662 14.4242 201.784 14.2737L201.37 20.821C200.451 20.821 199.687 20.8085 198.924 20.821C194.395 20.9213 191.626 23.5177 191.561 27.8951C191.484 32.0844 191.548 36.2737 191.548 40.463C191.548 41.2155 191.548 41.9556 191.548 42.8085H191.535Z" fill="#182954"/>
<path d="M78.2601 14.4493H85.4158L85.9722 17.5349C88.5602 14.7253 91.7434 14.0731 95.6253 14.5121L95.1336 20.5953C87.3179 21.6113 85.9981 23.1038 85.9851 30.6295C85.9851 34.5303 85.9463 38.4311 85.9205 42.3444C85.9205 42.4699 85.804 42.5828 85.6875 42.8085H78.2601V14.4493Z" fill="#182954"/>
<path d="M199.804 40.9898L198.795 39.3216L198.303 39.3467L198.342 40.9522L197.604 40.9898L197.565 36.8382L199.066 36.8005C199.39 36.8005 199.674 36.8633 199.907 36.9761C200.14 37.089 200.321 37.2395 200.438 37.4402C200.554 37.6284 200.606 37.8416 200.606 38.0799C200.606 38.3558 200.528 38.6067 200.36 38.8325C200.192 39.0582 199.933 39.2087 199.597 39.2965L200.71 41.0024H199.804V40.9898ZM198.342 38.7697L199.066 38.7321C199.312 38.7321 199.506 38.6694 199.623 38.5565C199.752 38.4436 199.804 38.2806 199.804 38.0799C199.804 37.8792 199.739 37.7287 199.623 37.6033C199.506 37.4904 199.312 37.4402 199.066 37.4402H198.342V38.7697Z" fill="#182954"/>
<path d="M198.976 42.846C196.75 42.846 194.951 41.09 194.951 38.9452C194.951 36.8004 196.763 35.0444 198.976 35.0444C201.188 35.0444 203 36.8004 203 38.9452C203 41.09 201.188 42.846 198.976 42.846ZM198.976 35.5461C197.048 35.5461 195.469 37.0638 195.469 38.9452C195.469 40.8266 197.035 42.3443 198.976 42.3443C200.917 42.3443 202.482 40.8266 202.482 38.9452C202.482 37.0638 200.917 35.5461 198.976 35.5461Z" fill="#182954"/>
</g>
<defs>
<clipPath id="clip0_1923_12485">
<rect width="203" height="44" fill="white"/>
</clipPath>
</defs>
</svg>
