<svg width="102" height="107" viewBox="0 0 102 107" fill="none" xmlns="http://www.w3.org/2000/svg">
<path d="M15.108 83.2443L6.54011 68.6825L15.108 54.1206L32.2439 54.1206L40.8118 68.6825L32.2439 83.2443L15.108 83.2443Z" fill="#E8308A"/>
<path d="M86.9833 23.5279L95.5512 38.0897L86.9833 52.6516L69.8474 52.6516L61.2795 38.0897L69.8474 23.5279L86.9833 23.5279Z" fill="#28B473"/>
<path d="M15.0167 52.6647L6.4488 38.1029L15.0167 23.541L32.1526 23.541L40.7205 38.1029L32.1526 52.6647L15.0167 52.6647Z" fill="#1376BB"/>
<path d="M86.9833 53.9439L95.5512 68.5058L86.9833 83.0676L69.8474 83.0676L61.2795 68.5058L69.8474 53.9439L86.9833 53.9439Z" fill="#18CCF3"/>
<path d="M42.5206 37.5309L33.9527 22.9691L42.5206 8.40726L59.6565 8.40726L68.2244 22.9691L59.6565 37.5309L42.5206 37.5309Z" fill="#EF7D00"/>
<path d="M59.8007 69.2559L68.3686 83.8178L59.8007 98.3796L42.6648 98.3796L34.0969 83.8178L42.6648 69.2559L59.8007 69.2559Z" fill="#742772"/>
</svg>
